<svg id="access" xmlns="http://www.w3.org/2000/svg" width="161" height="161" viewBox="0 0 161 161">
  <g id="グループ_2" data-name="グループ 2" transform="translate(-1492 -453)">
    <circle id="楕円形_1" data-name="楕円形 1" cx="80.5" cy="80.5" r="80.5" transform="translate(1492 453)" fill="#fff"/>
  </g>
  <g id="グループ_1" data-name="グループ 1" transform="translate(60.781 36.417)">
    <g id="Style-Two-Pin-Home--Streamline-Ultimate" transform="translate(0 0)">
      <path id="パス_1" data-name="パス 1" d="M22.6,8.754V21.218H9V8.754" transform="translate(4.598 9.376)" fill="none" stroke="#707070" stroke-linecap="round" stroke-linejoin="round" stroke-width="4"/>
      <path id="パス_2" data-name="パス 2" d="M7.5,13.553l10.2-6.8,10.2,6.8" transform="translate(2.698 6.844)" fill="none" stroke="#707070" stroke-linecap="round" stroke-linejoin="round" stroke-width="4"/>
      <path id="パス_3" data-name="パス 3" d="M43.793,21.15c0,17.9-15.71,27.945-19.556,30.141a1.7,1.7,0,0,1-1.684,0C18.707,49.093,3,39.049,3,21.15a20.4,20.4,0,1,1,40.793,0Z" transform="translate(-3 -0.754)" fill="none" stroke="#707070" stroke-linecap="round" stroke-linejoin="round" stroke-width="4"/>
    </g>
  </g>
  <text id="Access-2" data-name="Access" transform="translate(48.5 112.583)" font-size="19" font-family="TeluguSangamMN, Telugu Sangam MN"><tspan x="0" y="0">Access</tspan></text>
</svg>
